<?xml version="1.0" encoding="utf-8"?>
<!-- Generator: Adobe Illustrator 22.1.0, SVG Export Plug-In . SVG Version: 6.00 Build 0)  -->
<svg version="1.1" id="Layer_1" xmlns="http://www.w3.org/2000/svg" xmlns:xlink="http://www.w3.org/1999/xlink" x="0px" y="0px"
	 viewBox="0 0 512 512" style="enable-background:new 0 0 512 512;" xml:space="preserve">
	<g>
		<path  fill="#A7A7A7" d="M266.6,31c24.1,0,182.8,91.6,194.8,112.5c12.1,20.9,12.1,204.1,0,225C449.3,389.4,290.7,481,266.6,481
			c-24.1,0-182.8-91.6-194.9-112.5c-12-20.9-12-204.1,0-225C83.8,122.6,242.5,31,266.6,31z M309.6,158.5c-2.7,0-4.9,2.1-4.9,4.8V236
			h-76.3v-75.5h13.1c2.6,0,4.8-2.1,4.8-4.8c0-1.8-1-3.3-2.3-4.1l-29.5-28.3c-0.9-1.3-2.6-2.1-4.2-2.1c-1.5,0-3,0.8-3.9,2l-31.5,28.3
			c-1.3,0.9-2.3,2.3-2.3,4.1c0,2.6,2.1,4.8,4.8,4.8h13.2l0.1,188.2c0,2.7,2.1,4.8,4.8,4.8h28c2.6,0,4.8-2.1,4.8-4.8v-75.1h76.4v77.8
			h-13.1c-2.7,0-4.8,2.2-4.8,4.8c0,1.8,1,3.3,2.3,4.1l29.6,28.4c0.8,1.2,2.6,2.1,4.2,2.1s2.9-0.9,3.9-2.1l31.5-28.4
			c1.3-0.8,2.3-2.3,2.3-4.1c0-2.6-2.2-4.8-4.8-4.8h-13.2l-0.1-188.1c0-2.8-2.1-4.9-4.8-4.9L309.6,158.5L309.6,158.5z"/>
	</g>
</svg>
